<?xml version="1.0" encoding="UTF-8" standalone="no"?>
<!-- Created with Inkscape (http://www.inkscape.org/) -->

<svg
   version="1.1"
   id="svg1"
   width="144"
   height="144"
   viewBox="0 0 144 144"
   sodipodi:docname="favicon.svg"
   inkscape:export-filename="..\..\..\..\..\..\..\OneDrive\Documents\Projects\pwa\chromattis\public\favicon1.svg"
   inkscape:export-xdpi="96"
   inkscape:export-ydpi="96"
   inkscape:version="1.3.2 (091e20e, 2023-11-25, custom)"
   xmlns:inkscape="http://www.inkscape.org/namespaces/inkscape"
   xmlns:sodipodi="http://sodipodi.sourceforge.net/DTD/sodipodi-0.dtd"
   xmlns="http://www.w3.org/2000/svg"
   xmlns:svg="http://www.w3.org/2000/svg">
  <defs
     id="defs1" />
  <sodipodi:namedview
     id="namedview1"
     pagecolor="#ffffff"
     bordercolor="#000000"
     borderopacity="0.25"
     inkscape:showpageshadow="2"
     inkscape:pageopacity="0.0"
     inkscape:pagecheckerboard="0"
     inkscape:deskcolor="#d1d1d1"
     showgrid="false"
     inkscape:zoom="2"
     inkscape:cx="169.75"
     inkscape:cy="45.75"
     inkscape:window-width="1920"
     inkscape:window-height="1009"
     inkscape:window-x="-8"
     inkscape:window-y="-8"
     inkscape:window-maximized="1"
     inkscape:current-layer="g2" />
  <g
     inkscape:groupmode="layer"
     inkscape:label="Image"
     id="g1">
    <g
       id="g2"
       transform="scale(1,1.0105263)">
      <g
         id="g9131"
         transform="matrix(0.99962923,0,0,0.99922566,-182.43226,-2.1839152e-5)">
        <path
           style="opacity:1;fill:none;fill-opacity:1;stroke:#000000;stroke-width:5.54443;stroke-linecap:round;stroke-dasharray:none"
           d="m 185.27221,2.7722149 c 138.50885,0 138.50885,0 138.50885,0"
           id="path1" />
        <path
           style="fill:none;fill-opacity:1;stroke:#000000;stroke-width:5.54443;stroke-linecap:round;stroke-dasharray:none"
           d="m 185.27221,48.424073 c 138.50885,0 138.50885,0 138.50885,0"
           id="path1-9" />
        <path
           style="fill:none;fill-opacity:1;stroke:#000000;stroke-width:5.54443;stroke-linecap:round;stroke-dasharray:none"
           d="m 185.27221,94.075932 c 138.50885,0 138.50885,0 138.50885,0"
           id="path1-5" />
        <path
           style="fill:none;fill-opacity:1;stroke:#000000;stroke-width:5.54443;stroke-linecap:round;stroke-dasharray:none"
           d="m 185.27221,139.83826 c 138.50885,0 138.50885,0 138.50885,0"
           id="path1-2" />
        <path
           style="fill:none;fill-opacity:1;stroke:#000000;stroke-width:5.54443;stroke-linecap:round;stroke-dasharray:none"
           d="m 185.27221,2.7722149 c 0,137.0660451 0,137.0660451 0,137.0660451"
           id="path1-2-2" />
        <path
           style="fill:none;fill-opacity:1;stroke:#000000;stroke-width:5.54443;stroke-linecap:round;stroke-dasharray:none"
           d="m 277.61144,2.7722149 c 0,137.0660451 0,137.0660451 0,137.0660451"
           id="path1-2-22" />
        <path
           style="fill:none;fill-opacity:1;stroke:#000000;stroke-width:5.54443;stroke-linecap:round;stroke-dasharray:none"
           d="m 231.44183,2.7722149 c 0,137.0660451 0,137.0660451 0,137.0660451"
           id="path1-2-3" />
        <path
           style="fill:none;fill-opacity:1;stroke:#000000;stroke-width:5.54443;stroke-linecap:round;stroke-dasharray:none"
           d="m 323.78106,2.7722149 c 0,137.0660451 0,137.0660451 0,137.0660451"
           id="path1-2-38" />
        <path
           style="opacity:1;fill:#b71234;fill-opacity:1;stroke:#000000;stroke-width:0.786;stroke-linecap:round;stroke-dasharray:none"
           d="M 188.26718,25.809397 V 5.6568542 h 20.15254 20.15255 V 25.809397 45.961941 h -20.15255 -20.15254 z"
           id="path9123"
           transform="scale(1,0.98958335)" />
        <path
           style="opacity:1;fill:#ffd500;fill-opacity:0.760784;stroke:#000000;stroke-width:0.786;stroke-linecap:round;stroke-dasharray:none"
           d="M 234.22912,25.809397 V 5.6568542 h 20.15254 20.15255 V 25.809397 45.961941 h -20.15255 -20.15254 z"
           id="path9124"
           transform="scale(1,0.98958335)" />
        <path
           style="opacity:1;fill:#ffffff;fill-opacity:0.898039;stroke:#000000;stroke-width:0.786;stroke-linecap:round;stroke-dasharray:none"
           d="M 280.54461,25.809397 V 5.6568542 h 20.15255 20.15254 V 25.809397 45.961941 h -20.15254 -20.15255 z"
           id="path9125"
           transform="scale(1,0.98958335)" />
        <path
           style="opacity:1;fill:#ff5800;fill-opacity:1;stroke:#000000;stroke-width:0.786;stroke-linecap:round;stroke-dasharray:none"
           d="M 280.54461,71.948115 V 51.972348 h 20.15255 20.15254 v 19.975767 19.975766 h -20.15254 -20.15255 z"
           id="path9126"
           transform="scale(1,0.98958335)" />
        <path
           style="opacity:1;fill:#0046ad;fill-opacity:1;stroke:#000000;stroke-width:0.786;stroke-linecap:round;stroke-dasharray:none"
           d="M 234.22912,71.948115 V 51.972348 h 20.15254 20.15255 v 19.975767 19.975766 h -20.15255 -20.15254 z"
           id="path9127"
           transform="scale(1,0.98958335)" />
        <path
           style="opacity:1;fill:#ffd500;fill-opacity:1;stroke:#000000;stroke-width:0.786;stroke-linecap:round;stroke-dasharray:none"
           d="M 188.26718,71.948115 V 51.972348 h 20.15254 20.15255 v 19.975767 19.975766 h -20.15255 -20.15254 z"
           id="path9128"
           transform="scale(1,0.98958335)" />
        <path
           style="opacity:1;fill:#009b48;fill-opacity:1;stroke:#000000;stroke-width:0.786;stroke-linecap:round;stroke-dasharray:none"
           d="M 188.26718,118.08683 V 97.934289 h 20.15254 20.15255 v 20.152541 20.15255 h -20.15255 -20.15254 z"
           id="path9129"
           transform="scale(1,0.98958335)" />
        <path
           style="opacity:1;fill:#ff5800;fill-opacity:1;stroke:#000000;stroke-width:0.786;stroke-linecap:round;stroke-dasharray:none"
           d="M 234.22912,118.08683 V 97.934289 h 20.15254 20.15255 v 20.152541 20.15255 h -20.15255 -20.15254 z"
           id="path9130"
           transform="scale(1,0.98958335)" />
        <path
           style="opacity:1;fill:#ff5800;fill-opacity:0.827451;stroke:#000000;stroke-width:0.786;stroke-linecap:round;stroke-dasharray:none"
           d="M 280.54461,118.08683 V 97.934289 h 20.15255 20.15254 v 20.152541 20.15255 h -20.15254 -20.15255 z"
           id="path9131"
           transform="scale(1,0.98958335)" />
      </g>
    </g>
  </g>
</svg>
