<?xml version="1.0" encoding="UTF-8" standalone="no"?>
<!-- Created with Inkscape (http://www.inkscape.org/) -->

<svg
   version="1.1"
   id="svg1"
   width="144"
   height="144"
   viewBox="0 0 144 144"
   sodipodi:docname="favicon.svg"
   inkscape:export-filename="..\..\..\..\..\..\..\OneDrive\Documents\Projects\pwa\chromattis\public\favicon1.svg"
   inkscape:export-xdpi="96"
   inkscape:export-ydpi="96"
   inkscape:version="1.3.2 (091e20e, 2023-11-25, custom)"
   xmlns:inkscape="http://www.inkscape.org/namespaces/inkscape"
   xmlns:sodipodi="http://sodipodi.sourceforge.net/DTD/sodipodi-0.dtd"
   xmlns="http://www.w3.org/2000/svg"
   xmlns:svg="http://www.w3.org/2000/svg">
  <defs
     id="defs1" />
  <sodipodi:namedview
     id="namedview1"
     pagecolor="#ffffff"
     bordercolor="#000000"
     borderopacity="0.25"
     inkscape:showpageshadow="2"
     inkscape:pageopacity="0.0"
     inkscape:pagecheckerboard="0"
     inkscape:deskcolor="#d1d1d1"
     showgrid="false"
     inkscape:zoom="4"
     inkscape:cx="97.375"
     inkscape:cy="72.875"
     inkscape:window-width="1920"
     inkscape:window-height="1009"
     inkscape:window-x="-8"
     inkscape:window-y="-8"
     inkscape:window-maximized="1"
     inkscape:current-layer="g2" />
  <g
     inkscape:groupmode="layer"
     inkscape:label="Image"
     id="g1">
    <g
       id="g2"
       transform="scale(1,1.0105263)">
      <path
         style="fill:none;fill-opacity:1;stroke:#000000;stroke-width:5.54125;stroke-linecap:round;stroke-dasharray:none"
         d="m 2.7712566,2.7700464 c 138.4574934,0 138.4574934,0 138.4574934,0"
         id="path1" />
      <path
         style="fill:none;fill-opacity:1;stroke:#000000;stroke-width:5.54125;stroke-linecap:round;stroke-dasharray:none"
         d="m 2.7712566,48.386554 c 138.4574934,0 138.4574934,0 138.4574934,0"
         id="path1-9" />
      <path
         style="fill:none;fill-opacity:1;stroke:#000000;stroke-width:5.54125;stroke-linecap:round;stroke-dasharray:none"
         d="m 2.7712566,94.003063 c 138.4574934,0 138.4574934,0 138.4574934,0"
         id="path1-5" />
      <path
         style="fill:none;fill-opacity:1;stroke:#000000;stroke-width:5.54125;stroke-linecap:round;stroke-dasharray:none"
         d="m 2.7712566,139.72996 c 138.4574934,0 138.4574934,0 138.4574934,0"
         id="path1-2" />
      <path
         style="fill:none;fill-opacity:1;stroke:#000000;stroke-width:5.54125;stroke-linecap:round;stroke-dasharray:none"
         d="m 2.7712566,2.7700464 c 0,136.9599136 0,136.9599136 0,136.9599136"
         id="path1-2-2" />
      <path
         style="fill:none;fill-opacity:1;stroke:#000000;stroke-width:5.54125;stroke-linecap:round;stroke-dasharray:none"
         d="m 95.07625,2.7700464 c 0,136.9599136 0,136.9599136 0,136.9599136"
         id="path1-2-22" />
      <path
         style="fill:none;fill-opacity:1;stroke:#000000;stroke-width:5.54125;stroke-linecap:round;stroke-dasharray:none"
         d="m 48.923758,2.7700464 c 0,136.9599136 0,136.9599136 0,136.9599136"
         id="path1-2-3" />
      <path
         style="fill:none;fill-opacity:1;stroke:#000000;stroke-width:5.54125;stroke-linecap:round;stroke-dasharray:none"
         d="m 141.22875,2.7700464 c 0,136.9599136 0,136.9599136 0,136.9599136"
         id="path1-2-38" />
      <path
         style="fill:#b71234;fill-opacity:1;stroke:#000000;stroke-width:0.781448;stroke-linecap:round;stroke-dasharray:none"
         d="M 5.7651162,25.520751 V 5.5935722 H 25.910184 46.055262 V 25.520751 45.44793 H 25.910184 5.7651162 Z"
         id="path9123" />
      <path
         style="fill:#ffd500;fill-opacity:0.760784;stroke:#000000;stroke-width:0.781448;stroke-linecap:round;stroke-dasharray:none"
         d="M 51.710015,25.520751 V 5.5935722 H 71.855083 92.000161 V 25.520751 45.44793 H 71.855083 51.710015 Z"
         id="path9124" />
      <path
         style="fill:#ffffff;fill-opacity:0.898039;stroke:#000000;stroke-width:0.781448;stroke-linecap:round;stroke-dasharray:none"
         d="M 98.008332,25.520751 V 5.5935722 h 20.145078 20.14507 V 25.520751 45.44793 H 118.15341 98.008332 Z"
         id="path9125" />
      <path
         style="fill:#ff5800;fill-opacity:1;stroke:#000000;stroke-width:0.781448;stroke-linecap:round;stroke-dasharray:none"
         d="M 98.008332,71.143503 V 51.391124 h 20.145078 20.14507 V 71.143503 90.895882 H 118.15341 98.008332 Z"
         id="path9126" />
      <path
         style="fill:#0046ad;fill-opacity:1;stroke:#000000;stroke-width:0.781448;stroke-linecap:round;stroke-dasharray:none"
         d="M 51.710015,71.143503 V 51.391124 H 71.855083 92.000161 V 71.143503 90.895882 H 71.855083 51.710015 Z"
         id="path9127" />
      <path
         style="fill:#ffd500;fill-opacity:1;stroke:#000000;stroke-width:0.781448;stroke-linecap:round;stroke-dasharray:none"
         d="M 5.7651162,71.143503 V 51.391124 H 25.910184 46.055262 V 71.143503 90.895882 H 25.910184 5.7651162 Z"
         id="path9128" />
      <path
         style="fill:#009b48;fill-opacity:1;stroke:#000000;stroke-width:0.781448;stroke-linecap:round;stroke-dasharray:none"
         d="M 5.7651162,116.76625 V 96.839076 H 25.910184 46.055262 v 19.927174 19.92719 H 25.910184 5.7651162 Z"
         id="path9129" />
      <path
         style="fill:#ff5800;fill-opacity:1;stroke:#000000;stroke-width:0.781448;stroke-linecap:round;stroke-dasharray:none"
         d="M 51.710015,116.76625 V 96.839076 h 20.145068 20.145078 v 19.927174 19.92719 H 71.855083 51.710015 Z"
         id="path9130" />
      <path
         style="fill:#ff5800;fill-opacity:1;stroke:#000000;stroke-width:0.781448;stroke-linecap:round;stroke-dasharray:none"
         d="M 98.008332,116.76625 V 96.839076 h 20.145078 20.14507 v 19.927174 19.92719 H 118.15341 98.008332 Z"
         id="path9131" />
    </g>
  </g>
</svg>
